<svg version="1.1" id="Layer_1" xmlns="http://www.w3.org/2000/svg" xmlns:xlink="http://www.w3.org/1999/xlink" x="0px" y="0px"
	 viewBox="0 0 512 512" style="enable-background:new 0 0 512 512;" xml:space="preserve">
<g>
	<g>
		<path d="M375.158,376.078c-0.531-0.698-1.154-1.331-1.862-1.853l-33.634-25.228c-0.484-32.191-5.781-61.682-14.671-86.035
			l37.506,6.256l53.62,71.494c1.825,2.43,4.627,3.724,7.457,3.724c1.936,0,3.901-0.605,5.576-1.871
			c4.115-3.081,4.943-8.918,1.862-13.033l-55.854-74.473c-1.443-1.908-3.556-3.202-5.921-3.593l-53.118-8.853
			c-8.704-16.812-19.437-29.752-31.521-37.804c6.824-4.776,12.716-11.152,17.25-18.749c0.233,0.019,0.447,0.121,0.689,0.121
			c0.745,0,1.508-0.093,2.262-0.279l74.473-18.618c2.402-0.605,4.459-2.132,5.725-4.245l27.927-46.545
			c2.644-4.403,1.219-10.128-3.193-12.772s-10.128-1.219-12.772,3.193l-25.944,43.241l-61.04,15.258
			c1.182-5.269,1.88-10.771,1.88-16.468c0-7.326-1.136-14.41-3.1-21.104c0.112-0.102,0.261-0.14,0.372-0.242l37.236-37.236
			c1.741-1.75,2.728-4.115,2.728-6.582V55.855c0-5.148-4.17-9.309-9.309-9.309c-5.148,0-9.309,4.161-9.309,9.309v24.064
			l-29.873,29.873c-1.648-2.551-3.5-4.934-5.483-7.196c4.571-4.98,7.429-11.553,7.429-18.814c0-11.85-7.447-21.932-17.873-25.982
			c3.556-22.156,22.658-39.182,45.801-39.182c5.139,0,9.309-4.17,9.309-9.309c0-5.148-4.17-9.309-9.309-9.309
			c-32.768,0-59.885,24.325-64.419,55.854h-20.108C241.405,24.325,214.288,0,181.529,0c-5.148,0-9.309,4.161-9.309,9.309
			c0,5.139,4.161,9.309,9.309,9.309c23.142,0,42.235,17.026,45.801,39.182c-10.435,4.049-17.873,14.131-17.873,25.982
			c0,7.261,2.858,13.833,7.429,18.814c-1.983,2.262-3.835,4.645-5.492,7.196l-29.864-29.873V55.855c0-5.148-4.17-9.309-9.309-9.309
			c-5.148,0-9.309,4.161-9.309,9.309v27.927c0,2.467,0.977,4.831,2.728,6.582l37.236,37.236c0.102,0.102,0.251,0.14,0.363,0.242
			c-1.964,6.693-3.091,13.777-3.091,21.104c0,5.697,0.689,11.199,1.88,16.468l-61.049-15.258l-25.944-43.241
			c-2.644-4.403-8.36-5.837-12.772-3.193c-4.413,2.644-5.837,8.369-3.193,12.772l27.927,46.545c1.275,2.113,3.333,3.64,5.725,4.245
			l74.473,18.618c0.763,0.186,1.517,0.279,2.271,0.279c0.233,0,0.456-0.102,0.689-0.121c4.534,7.596,10.417,13.973,17.24,18.749
			c-12.074,8.052-22.817,20.992-31.521,37.804l-53.118,8.853c-2.355,0.391-4.478,1.685-5.911,3.593l-55.855,74.473
			c-3.091,4.115-2.253,9.951,1.862,13.033c1.676,1.266,3.631,1.871,5.576,1.871c2.83,0,5.623-1.294,7.457-3.724l53.611-71.494
			l37.516-6.256c-8.899,24.353-14.187,53.844-14.671,86.035l-33.634,25.228c-0.708,0.521-1.331,1.154-1.862,1.853l-55.855,74.473
			c-3.091,4.115-2.253,9.951,1.862,13.033c1.676,1.266,3.631,1.871,5.576,1.871c2.83,0,5.623-1.294,7.457-3.724l55.054-73.411
			l21.848-16.384C177.424,451.789,212.286,512,256.002,512c43.715,0,78.569-60.211,83.214-140.065l21.839,16.384l55.063,73.411
			c1.825,2.43,4.627,3.724,7.457,3.724c1.936,0,3.901-0.605,5.576-1.871c4.115-3.081,4.943-8.918,1.862-13.033L375.158,376.078z
			 M237.384,74.473h37.236c5.129,0,9.309,4.17,9.309,9.309c0,5.129-4.18,9.309-9.309,9.309h-37.236c-5.139,0-9.309-4.18-9.309-9.309
			C228.075,78.643,232.245,74.473,237.384,74.473z M218.766,148.945c0-14.755,5.772-28.719,15.286-37.46
			c1.117,0.149,2.225,0.223,3.333,0.223h37.236c1.098,0,2.206-0.074,3.333-0.223c9.505,8.741,15.286,22.705,15.286,37.46
			c0,25.656-16.71,46.545-37.236,46.545C235.466,195.491,218.766,174.601,218.766,148.945z M297.4,391.959
			c4.599,2.299,6.461,7.894,4.161,12.493c-1.629,3.258-4.915,5.148-8.332,5.148c-1.396,0-2.821-0.317-4.161-0.987l-23.757-11.878
			v31.483c0,5.139-4.17,9.309-9.309,9.309c-5.148,0-9.309-4.17-9.309-9.309v-31.483l-23.766,11.878
			c-1.341,0.67-2.755,0.987-4.152,0.987c-3.416,0-6.712-1.89-8.341-5.148c-2.299-4.599-0.438-10.193,4.161-12.493l32.098-16.049
			v-44.339l-32.098-16.049c-4.599-2.299-6.461-7.894-4.161-12.493c2.299-4.589,7.885-6.47,12.493-4.161l23.766,11.878v-31.474
			c0-5.148,4.161-9.309,9.309-9.309c5.139,0,9.309,4.161,9.309,9.309v31.474l23.757-11.878c4.608-2.309,10.193-0.428,12.493,4.161
			c2.299,4.599,0.438,10.193-4.161,12.493l-32.088,16.049v44.339L297.4,391.959z"/>
	</g>
</g>
<g>
</g>
<g>
</g>
<g>
</g>
<g>
</g>
<g>
</g>
<g>
</g>
<g>
</g>
<g>
</g>
<g>
</g>
<g>
</g>
<g>
</g>
<g>
</g>
<g>
</g>
<g>
</g>
<g>
</g>
</svg>
